<svg xmlns="http://www.w3.org/2000/svg" width="78" height="30" viewBox="0 0 78 30" fill="none" version="1.1" id="svg12">
    <path fill-rule="evenodd" clip-rule="evenodd" d="M3.8999 16.9231C1.7494 16.9231 0 18.6483 0 20.7692c0 2.1208 1.7494 3.8462 3.8999 3.8462S7.8 22.89 7.8 20.7692c0-2.1209-1.7496-3.8461-3.9001-3.8461z" fill="#FD5A1F" id="path2"/>
    <path class="logo-letter" fill-rule="evenodd" clip-rule="evenodd" d="M18.0441 14.057c-.5779-.1165-1.1458-.1678-1.6955-.2109-1.7281-.1362-2.1333-.3599-2.3089-.8528-.0376-.1057-.0742-.3742.1071-.652.3035-.4655 1.0609-.7281 2.0776-.7204.9428.0073 1.8046.377 2.6468.7561 1.1425.5762 2.4932.1518 3.049-1.0156.4317-.9063.3071-2.2497-1.0753-3.0956-1.4298-.8748-2.9427-1.33-4.5867-1.3424-3.5279-.027-5.2114 1.7424-5.9007 2.7993-.9854 1.5108-1.1881 3.4578-.5293 5.0815 1.3467 3.3182 4.3514 3.572 6.1468 3.724.4444.0374.8641.0729 1.192.1389.9198.1854.8984.8893.8848 1.0284-.0606.6198-.7858.9997-1.8924.9912-1.1991-.0091-2.3254-.5152-3.148-1.4018-.1606-.173-.4224-.1917-.6045-.0428l-2.8756 2.3524c-.2003.1639-.2299.4684-.0606.666 1.6897 1.9719 4.0893 3.1042 6.6549 3.1239 1.7772.0133 3.3318-.4952 4.4957-1.4707 1.1275-.9449 1.8276-2.2758 1.9717-3.7475.1335-1.3651-.2246-2.7284-1.0086-3.8385-.8269-1.1708-2.0843-1.9772-3.5403-2.2707z" fill="#fff" id="path4" style="fill:#1b3363;fill-opacity:1"/>
    <path class="logo-letter" fill-rule="evenodd" clip-rule="evenodd" d="M36.586 8.2286c-1.984-1.1479-4.3199-1.4688-6.5012-.9643V2.5836C30.0848 1.1568 29.0123 0 27.6081 0c-1.4042 0-2.4767 1.1568-2.4767 2.5836v7.8061a8.9995 8.9995 0 0 0-1.635 3.1652c-.3793 1.33.4067 2.6505 1.635 3.0413v7.565c0 .2509.2014.4542.4502.4542h4.053c.2487 0 .4502-.2033.4502-.4542V12.571c.9784-.5862 2.1603-.7471 3.2046-.3732 1.5375.5506 1.5375 2.2971 1.5375 4.5174v7.446c0 .2509.2015.4542.4503.4542h4.053c.2487 0 .4502-.2033.4502-.4542v-8.6987c0-5.6516-3.1944-7.234-3.1944-7.234z" fill="#fff" id="path6" style="fill:#1b3363;fill-opacity:1"/>
    <path class="logo-letter" fill-rule="evenodd" clip-rule="evenodd" d="M50.6998 20.2888c-2.3119 0-4.1927-1.855-4.1927-4.135 0-2.2801 1.8808-4.1349 4.1927-4.1349 2.312 0 4.193 1.8548 4.193 4.1349 0 2.28-1.881 4.135-4.193 4.135zm-.0001-13.3657c-5.1611 0-9.3599 4.1407-9.3599 9.2307 0 5.0897 4.1988 9.2308 9.3599 9.2308 5.161 0 9.3601-4.1411 9.3601-9.2308 0-5.09-4.1991-9.2307-9.3601-9.2307z" fill="#fff" id="path8" style="fill:#1b3363;fill-opacity:1"/>
    <path class="logo-letter" fill-rule="evenodd" clip-rule="evenodd" d="M72.9628 16.8208c-.1301 1.991-1.7932 3.5968-3.8385 3.7087-.7743.0423-1.5048-.1279-2.1375-.4546v-5.2161c0-1.5417.8471-2.2646 1.8836-2.2696h.0206c2.3378 0 4.2228 1.924 4.0718 4.2316zm5.0298-.6078c-.1797-4.5336-3.9279-8.2517-8.5792-8.5063-1.3724-.0751-2.6839.148-3.873.6082-2.186.8463-3.5818 2.7433-3.5818 5.6847V16.16c-.5677.105-1.0737.4108-1.4286.8738-.4496.5862-.5849 1.326-.3714 2.0301.3592 1.1829.98 2.2993 1.8 3.239v7.2523c0 .2457.2045.4449.4568.4449h4.1144c.2523 0 .457-.1992.457-.4449v-4.3204a9.3204 9.3204 0 0 0 1.9042.1978c5.1414 0 9.3017-4.1703 9.1016-9.2196z" fill="#fff" id="path10" style="fill:#1b3363;fill-opacity:1"/>
<style xmlns="" type="text/css" id="igtranslator-color"/></svg>